<svg xmlns="http://www.w3.org/2000/svg" height="20" width="20"><path d="M15.5 9.979q0-2.271-1.615-3.885Q12.271 4.479 10 4.479v-1.5q1.458 0 2.729.552 1.271.552 2.219 1.5t1.5 2.219Q17 8.521 17 9.979Zm-3 0q0-1.041-.729-1.771-.729-.729-1.771-.729v-1.5q1.667 0 2.833 1.167Q14 8.312 14 9.979Zm3.396 7q-2.563-.208-4.834-1.281-2.27-1.073-3.989-2.802-1.719-1.729-2.802-4T3 4.062q-.042-.437.26-.76T4 2.979h2.833q.355 0 .615.209.26.208.344.562l.5 2.229q.041.25-.021.5-.063.25-.25.438L6 8.958q.875 1.584 2.146 2.854Q9.417 13.083 11 13.958l2.062-2q.209-.208.459-.26.25-.052.479-.01l2.229.479q.354.083.563.354.208.271.208.625v2.833q0 .563-.396.792-.396.229-.708.208ZM5.312 7.5l1.459-1.458-.354-1.563H4.542q.104.792.291 1.542.188.75.479 1.479Zm7.167 7.167q.729.291 1.49.468.76.177 1.531.282v-1.875l-1.562-.334ZM5.312 7.5Zm7.167 7.167Z"/></svg>